<?xml version="1.0" standalone="no"?>
<!DOCTYPE svg PUBLIC "-//W3C//DTD SVG 20010904//EN"
 "http://www.w3.org/TR/2001/REC-SVG-20010904/DTD/svg10.dtd">
<svg version="1.0" xmlns="http://www.w3.org/2000/svg"
 width="772.000000pt" height="672.000000pt" viewBox="0 0 772.000000 672.000000"
 preserveAspectRatio="xMidYMid meet">

<g transform="translate(0.000000,672.000000) scale(0.100000,-0.100000)"
fill="#000000" stroke="none">
<path d="M0 3360 l0 -3360 3860 0 3860 0 0 3360 0 3360 -3860 0 -3860 0 0
-3360z m6981 2540 c129 -39 229 -126 287 -248 36 -76 37 -79 37 -198 0 -120 0
-120 -39 -199 -52 -105 -121 -174 -223 -223 -77 -36 -80 -37 -200 -37 -68 0
-118 -1 -113 -3 18 -6 11 -30 -61 -189 -40 -87 -158 -349 -264 -583 -181 -401
-284 -629 -475 -1060 -91 -204 -78 -176 -389 -863 -122 -268 -230 -510 -242
-538 -12 -27 -26 -49 -32 -49 -6 0 11 -20 37 -45 95 -92 146 -210 146 -339 -1
-138 -40 -236 -134 -330 -73 -73 -144 -111 -251 -133 -71 -14 -85 -14 -158 0
-160 32 -276 121 -345 264 -36 75 -37 82 -37 188 0 61 4 122 9 138 7 23 6 26
-8 21 -13 -5 -304 152 -798 432 -143 81 -232 131 -336 189 -83 47 -103 62 -99
77 4 12 -11 4 -44 -26 -109 -98 -200 -130 -354 -124 -94 3 -108 6 -178 41 -59
29 -91 54 -142 110 -48 52 -63 64 -56 44 14 -35 14 -47 1 -47 -5 0 -133 -48
-282 -106 -150 -58 -311 -121 -358 -139 -47 -18 -209 -81 -360 -140 -151 -59
-285 -111 -298 -116 -19 -7 -24 -5 -32 16 -5 14 -12 25 -14 25 -3 0 -5 -37 -5
-83 1 -144 -36 -234 -137 -334 -142 -143 -345 -177 -529 -89 -161 76 -265 241
-265 421 1 205 149 398 345 449 123 33 262 12 370 -54 28 -17 76 -59 108 -93
45 -49 55 -56 47 -34 -5 16 -10 30 -10 32 0 2 66 29 147 60 82 32 198 77 258
101 61 23 180 69 265 102 85 33 267 104 404 157 l250 96 18 -23 c17 -23 18
-21 18 63 0 165 68 297 195 384 273 186 627 54 720 -269 17 -58 17 -170 0
-251 -5 -21 -4 -26 3 -16 8 10 46 -7 188 -87 955 -536 1049 -591 1048 -606 -1
-12 10 -6 40 19 117 101 216 139 351 134 68 -3 85 -1 85 10 0 8 27 73 59 145
138 305 356 787 391 866 21 47 81 180 133 295 53 116 104 233 115 260 11 28
42 100 70 160 98 216 245 542 303 670 322 717 389 860 404 863 12 3 4 16 -34
52 -159 152 -197 383 -95 570 34 62 122 150 183 183 106 58 248 73 362 37z"/>
<path d="M6755 5653 c-44 -23 -84 -63 -107 -107 -31 -60 -23 -157 17 -214 97
-137 318 -116 382 37 22 53 18 136 -9 190 -35 67 -111 111 -193 111 -35 -1
-73 -7 -90 -17z"/>
<path d="M2835 2681 c-87 -40 -130 -107 -129 -203 0 -55 5 -73 27 -106 75
-114 209 -141 319 -65 49 33 88 111 88 175 0 158 -163 264 -305 199z"/>
<path d="M615 1821 c-75 -34 -125 -114 -125 -198 1 -124 93 -213 220 -213 128
0 214 86 214 215 0 67 -16 106 -65 154 -61 62 -163 79 -244 42z"/>
<path d="M4925 1571 c-120 -30 -204 -147 -192 -271 12 -134 118 -230 255 -230
134 0 250 112 252 243 0 79 -20 129 -79 188 -72 71 -143 92 -236 70z"/>
</g>
</svg>
